<svg width="129" height="54" viewBox="0 0 129 54" fill="none" xmlns="http://www.w3.org/2000/svg">
<rect x="1" y="1" width="127" height="52" rx="9" fill="#477AC6"/>
<rect x="1" y="1" width="127" height="52" rx="9" fill="url(#paint0_linear)"/>
<rect x="1" y="1" width="127" height="52" rx="9" stroke="#477AC6" stroke-width="2"/>
<path d="M9.54141 19.58C10.6614 19.12 11.8614 18.32 13.1414 17.18C13.7614 16.62 14.3414 16.14 14.8814 15.74C15.4214 15.34 16.0814 15.14 16.8614 15.14C17.6614 15.14 18.3414 15.28 18.9014 15.56C18.4214 19.36 18.1814 22.92 18.1814 26.24C18.1814 29.56 18.3614 32.42 18.7214 34.82C18.1614 35.06 17.5114 35.18 16.7714 35.18C16.0314 35.18 15.4314 34.94 14.9714 34.46C14.5114 33.98 14.2814 33.34 14.2814 32.54C14.2814 31.72 14.4414 30.01 14.7614 27.41C15.0814 24.81 15.2514 21.99 15.2714 18.95C15.0514 19.15 14.6814 19.55 14.1614 20.15C13.0014 21.49 12.0914 22.16 11.4314 22.16C10.7914 22.16 10.3114 21.92 9.99141 21.44C9.69141 20.96 9.54141 20.34 9.54141 19.58ZM51.1453 32.69C51.1453 33.37 50.9053 33.96 50.4253 34.46C49.9653 34.94 49.3153 35.18 48.4753 35.18C47.6353 35.18 46.1653 35.12 44.0653 35C41.9653 34.88 40.3453 34.82 39.2053 34.82C38.7453 34.14 38.5153 33.43 38.5153 32.69C38.5153 31.93 38.8253 31.14 39.4453 30.32C40.0653 29.48 40.8153 28.7 41.6953 27.98C42.5753 27.24 43.4453 26.5 44.3053 25.76C45.1853 25.02 45.9353 24.2 46.5553 23.3C47.1753 22.4 47.4853 21.55 47.4853 20.75C47.4853 19.93 47.2653 19.26 46.8253 18.74C46.3853 18.22 45.7853 17.96 45.0253 17.96C44.2653 17.96 43.6353 18.17 43.1353 18.59C42.7353 19.19 42.5353 19.88 42.5353 20.66C42.5353 21.42 42.5953 22.01 42.7153 22.43C42.3153 22.53 41.9853 22.58 41.7253 22.58C40.9253 22.58 40.2453 22.36 39.6853 21.92C39.1453 21.46 38.8753 20.85 38.8753 20.09C38.8753 18.63 39.5553 17.44 40.9153 16.52C42.2753 15.6 43.7853 15.14 45.4453 15.14C47.1053 15.14 48.4753 15.59 49.5553 16.49C50.6353 17.37 51.1753 18.59 51.1753 20.15C51.1753 21.07 50.8853 22 50.3053 22.94C49.7253 23.88 49.0253 24.75 48.2053 25.55C47.3853 26.33 46.5553 27.1 45.7153 27.86C43.7353 29.64 42.7453 31.14 42.7453 32.36C45.8853 32.32 48.5653 31.82 50.7853 30.86C51.0253 31.4 51.1453 32.01 51.1453 32.69ZM75.4512 22.43C75.0512 22.53 74.7212 22.58 74.4612 22.58C73.6612 22.58 72.9812 22.36 72.4212 21.92C71.8812 21.46 71.6112 20.85 71.6112 20.09C71.6112 18.63 72.2912 17.44 73.6512 16.52C75.0112 15.6 76.5212 15.14 78.1812 15.14C79.8612 15.14 81.2312 15.55 82.2912 16.37C83.3712 17.17 83.9112 18.34 83.9112 19.88C83.9112 21.68 83.1112 23.14 81.5112 24.26C82.5712 24.6 83.3812 25.15 83.9412 25.91C84.5212 26.67 84.8112 27.56 84.8112 28.58C84.8112 30.6 83.9812 32.24 82.3212 33.5C80.6612 34.74 78.7112 35.36 76.4712 35.36C74.9312 35.36 73.6012 35.05 72.4812 34.43C71.3612 33.81 70.8012 32.88 70.8012 31.64C70.8012 30.84 71.0712 30.2 71.6112 29.72C72.1512 29.24 72.8312 29 73.6512 29C74.0912 29 74.4812 29.05 74.8212 29.15C74.6812 29.55 74.6112 29.93 74.6112 30.29C74.6112 31.01 74.8812 31.57 75.4212 31.97C75.9612 32.35 76.6912 32.54 77.6112 32.54C78.5512 32.54 79.3212 32.25 79.9212 31.67C80.5212 31.07 80.8212 30.29 80.8212 29.33C80.8212 28.37 80.5612 27.63 80.0412 27.11C79.5212 26.59 78.8312 26.33 77.9712 26.33C77.5112 26.33 77.1112 26.21 76.7712 25.97C76.4512 25.71 76.2912 25.4 76.2912 25.04C76.2912 24.66 76.3412 24.32 76.4412 24.02C76.8012 24.08 77.1612 24.11 77.5212 24.11C78.4412 24.11 79.1212 23.79 79.5612 23.15C80.0012 22.51 80.2212 21.75 80.2212 20.87C80.2212 19.99 80.0012 19.29 79.5612 18.77C79.1212 18.23 78.5212 17.96 77.7612 17.96C77.0012 17.96 76.3612 18.16 75.8412 18.56C75.4612 19.24 75.2712 19.94 75.2712 20.66C75.2712 21.38 75.3312 21.97 75.4512 22.43ZM116.584 34.82C115.944 35.06 115.284 35.18 114.604 35.18C113.944 35.18 113.404 34.97 112.984 34.55C112.584 34.11 112.384 33.51 112.384 32.75C112.384 32.55 112.454 31.54 112.594 29.72C109.374 29.68 107.214 29.6 106.114 29.48C104.594 29.32 103.834 28.57 103.834 27.23C106.714 22.83 109.534 19.16 112.294 16.22C112.934 15.5 113.654 15.14 114.454 15.14C115.274 15.14 115.994 15.24 116.614 15.44C116.174 18.44 115.954 22.15 115.954 26.57C116.774 26.41 117.634 26.18 118.534 25.88C118.674 26.32 118.744 26.87 118.744 27.53C118.744 28.19 118.504 28.73 118.024 29.15C117.544 29.57 116.874 29.78 116.014 29.78C116.114 31.8 116.304 33.48 116.584 34.82ZM107.164 26.81C108.144 26.99 109.144 27.08 110.164 27.08C111.204 27.08 112.074 27.05 112.774 26.99C112.914 25.69 112.984 24.26 112.984 22.7C112.984 21.12 112.954 19.98 112.894 19.28C111.394 20.84 109.484 23.35 107.164 26.81Z" fill="white"/>
<line x1="28.1426" y1="6" x2="28.1426" y2="43" stroke="white" stroke-opacity="0.1"/>
<line x1="61.5" y1="6" x2="61.5" y2="43" stroke="white" stroke-opacity="0.1"/>
<line x1="94.5" y1="6" x2="94.5" y2="43" stroke="white" stroke-opacity="0.1"/>
<defs>
<linearGradient id="paint0_linear" x1="7.2676" y1="3.29268" x2="12.1701" y2="28.295" gradientUnits="userSpaceOnUse">
<stop stop-color="white"/>
<stop offset="0.96875" stop-color="#477AC6" stop-opacity="0.0364583"/>
<stop offset="1" stop-color="white" stop-opacity="0"/>
</linearGradient>
</defs>
</svg>
