<svg width="24" height="24" viewBox="0 0 24 24" fill="none" xmlns="http://www.w3.org/2000/svg"><path fill-rule="evenodd" clip-rule="evenodd" d="M12 22.2C6.37564 22.2 1.80004 17.6244 1.80004 12C1.80004 6.37565 6.37564 1.80005 12 1.80005C17.6244 1.80005 22.2 6.37565 22.2 12C22.2 17.6244 17.6244 22.2 12 22.2ZM12 0C5.3724 0 0 5.373 0 12C0 18.6276 5.3724 24 12 24C18.627 24 24 18.6276 24 12C24 5.373 18.627 0 12 0Z" fill="#0B40B3"/><mask id="path-2-inside-1" fill="white"><rect x="5" y="7" width="14" height="10" rx="1"/></mask><rect x="5" y="7" width="14" height="10" rx="1" stroke="#0B40B3" stroke-width="3" mask="url(#path-2-inside-1)"/><path d="M6 8L11.4 12.05C11.7556 12.3167 12.2444 12.3167 12.6 12.05L18 8" stroke="#0B40B3" stroke-width="1.5"/></svg>